<mxfile host="app.diagrams.net" agent="Mozilla/5.0 (Macintosh; Intel Mac OS X 10_15_7) AppleWebKit/537.36 (KHTML, like Gecko) Chrome/134.0.0.0 Safari/537.36" version="26.1.0">
  <diagram name="Page-1" id="19k9J621MlUciHaa5z5c">
    <mxGraphModel dx="1859" dy="913" grid="1" gridSize="10" guides="1" tooltips="1" connect="1" arrows="1" fold="1" page="1" pageScale="1" pageWidth="850" pageHeight="1100" math="0" shadow-sm="0">
      <root>
        <mxCell id="0" />
        <mxCell id="1" parent="0" />
        <mxCell id="dUjcfKqK3O1uWmtBk4-m-6" style="edgeStyle=orthogonalEdgeStyle;rounded=0;orthogonalLoop=1;jettySize=auto;html=1;exitX=0.5;exitY=1;exitDx=0;exitDy=0;entryX=0.5;entryY=0;entryDx=0;entryDy=0;" edge="1" parent="1" source="dUjcfKqK3O1uWmtBk4-m-1" target="dUjcfKqK3O1uWmtBk4-m-2">
          <mxGeometry relative="1" as="geometry" />
        </mxCell>
        <mxCell id="dUjcfKqK3O1uWmtBk4-m-15" style="edgeStyle=orthogonalEdgeStyle;rounded=0;orthogonalLoop=1;jettySize=auto;html=1;exitX=0;exitY=0.5;exitDx=0;exitDy=0;entryX=1;entryY=0.5;entryDx=0;entryDy=0;dashed=1;" edge="1" parent="1" source="dUjcfKqK3O1uWmtBk4-m-1" target="dUjcfKqK3O1uWmtBk4-m-14">
          <mxGeometry relative="1" as="geometry" />
        </mxCell>
        <mxCell id="dUjcfKqK3O1uWmtBk4-m-16" style="edgeStyle=orthogonalEdgeStyle;rounded=0;orthogonalLoop=1;jettySize=auto;html=1;exitX=0;exitY=0.5;exitDx=0;exitDy=0;entryX=1;entryY=0.5;entryDx=0;entryDy=0;dashed=1;" edge="1" parent="1" source="dUjcfKqK3O1uWmtBk4-m-1" target="dUjcfKqK3O1uWmtBk4-m-13">
          <mxGeometry relative="1" as="geometry" />
        </mxCell>
        <mxCell id="dUjcfKqK3O1uWmtBk4-m-1" value="Kanban Board" style="rounded=1;whiteSpace=wrap;html=1;fillColor=#dae8fc;strokeColor=#6c8ebf;" vertex="1" parent="1">
          <mxGeometry x="360" y="340" width="120" height="60" as="geometry" />
        </mxCell>
        <mxCell id="dUjcfKqK3O1uWmtBk4-m-7" style="edgeStyle=orthogonalEdgeStyle;rounded=0;orthogonalLoop=1;jettySize=auto;html=1;exitX=0.5;exitY=1;exitDx=0;exitDy=0;entryX=0.5;entryY=0;entryDx=0;entryDy=0;" edge="1" parent="1" source="dUjcfKqK3O1uWmtBk4-m-2" target="dUjcfKqK3O1uWmtBk4-m-3">
          <mxGeometry relative="1" as="geometry" />
        </mxCell>
        <mxCell id="dUjcfKqK3O1uWmtBk4-m-2" value="Columns" style="rounded=1;whiteSpace=wrap;html=1;fillColor=#dae8fc;strokeColor=#6c8ebf;" vertex="1" parent="1">
          <mxGeometry x="360" y="450" width="120" height="60" as="geometry" />
        </mxCell>
        <mxCell id="dUjcfKqK3O1uWmtBk4-m-8" style="edgeStyle=orthogonalEdgeStyle;rounded=0;orthogonalLoop=1;jettySize=auto;html=1;exitX=0.5;exitY=1;exitDx=0;exitDy=0;entryX=0.5;entryY=0;entryDx=0;entryDy=0;" edge="1" parent="1" source="dUjcfKqK3O1uWmtBk4-m-3" target="dUjcfKqK3O1uWmtBk4-m-4">
          <mxGeometry relative="1" as="geometry" />
        </mxCell>
        <mxCell id="dUjcfKqK3O1uWmtBk4-m-9" style="edgeStyle=orthogonalEdgeStyle;rounded=0;orthogonalLoop=1;jettySize=auto;html=1;exitX=0.5;exitY=1;exitDx=0;exitDy=0;entryX=0.5;entryY=0;entryDx=0;entryDy=0;" edge="1" parent="1" source="dUjcfKqK3O1uWmtBk4-m-3" target="dUjcfKqK3O1uWmtBk4-m-5">
          <mxGeometry relative="1" as="geometry" />
        </mxCell>
        <mxCell id="dUjcfKqK3O1uWmtBk4-m-3" value="Cards" style="rounded=1;whiteSpace=wrap;html=1;fillColor=#dae8fc;strokeColor=#6c8ebf;" vertex="1" parent="1">
          <mxGeometry x="360" y="560" width="120" height="60" as="geometry" />
        </mxCell>
        <mxCell id="dUjcfKqK3O1uWmtBk4-m-4" value="Comments" style="rounded=1;whiteSpace=wrap;html=1;fillColor=#dae8fc;strokeColor=#6c8ebf;" vertex="1" parent="1">
          <mxGeometry x="240" y="670" width="120" height="60" as="geometry" />
        </mxCell>
        <mxCell id="dUjcfKqK3O1uWmtBk4-m-5" value="Attachments" style="rounded=1;whiteSpace=wrap;html=1;fillColor=#dae8fc;strokeColor=#6c8ebf;" vertex="1" parent="1">
          <mxGeometry x="480" y="670" width="120" height="60" as="geometry" />
        </mxCell>
        <mxCell id="dUjcfKqK3O1uWmtBk4-m-11" style="edgeStyle=orthogonalEdgeStyle;rounded=0;orthogonalLoop=1;jettySize=auto;html=1;exitX=0;exitY=0.5;exitDx=0;exitDy=0;dashed=1;" edge="1" parent="1" source="dUjcfKqK3O1uWmtBk4-m-10" target="dUjcfKqK3O1uWmtBk4-m-1">
          <mxGeometry relative="1" as="geometry" />
        </mxCell>
        <mxCell id="dUjcfKqK3O1uWmtBk4-m-10" value="Team" style="rounded=1;whiteSpace=wrap;html=1;fillColor=#fff2cc;strokeColor=#d6b656;" vertex="1" parent="1">
          <mxGeometry x="620" y="340" width="120" height="60" as="geometry" />
        </mxCell>
        <mxCell id="dUjcfKqK3O1uWmtBk4-m-12" value="Access" style="text;html=1;align=center;verticalAlign=middle;resizable=0;points=[];autosize=1;strokeColor=none;fillColor=none;" vertex="1" parent="1">
          <mxGeometry x="520" y="338" width="60" height="30" as="geometry" />
        </mxCell>
        <mxCell id="dUjcfKqK3O1uWmtBk4-m-13" value="Created by me" style="rounded=1;whiteSpace=wrap;html=1;fillColor=#d5e8d4;strokeColor=#82b366;" vertex="1" parent="1">
          <mxGeometry x="30" y="280" width="120" height="60" as="geometry" />
        </mxCell>
        <mxCell id="dUjcfKqK3O1uWmtBk4-m-14" value="Shared with me" style="rounded=1;whiteSpace=wrap;html=1;fillColor=#d5e8d4;strokeColor=#82b366;" vertex="1" parent="1">
          <mxGeometry x="30" y="400" width="120" height="60" as="geometry" />
        </mxCell>
        <mxCell id="dUjcfKqK3O1uWmtBk4-m-17" value="Types of boards" style="text;html=1;align=center;verticalAlign=middle;resizable=0;points=[];autosize=1;strokeColor=none;fillColor=none;" vertex="1" parent="1">
          <mxGeometry x="255" y="338" width="110" height="30" as="geometry" />
        </mxCell>
        <mxCell id="dUjcfKqK3O1uWmtBk4-m-19" value="&lt;font style=&quot;font-size: 16px;&quot;&gt;&lt;b&gt;Component Hierarchy&lt;/b&gt;&lt;/font&gt;" style="rounded=0;whiteSpace=wrap;html=1;fillColor=none;" vertex="1" parent="1">
          <mxGeometry x="310" y="230" width="230" height="30" as="geometry" />
        </mxCell>
        <mxCell id="dUjcfKqK3O1uWmtBk4-m-28" style="edgeStyle=orthogonalEdgeStyle;rounded=0;orthogonalLoop=1;jettySize=auto;html=1;exitX=0.9;exitY=0.5;exitDx=0;exitDy=0;exitPerimeter=0;entryX=0;entryY=0.5;entryDx=0;entryDy=0;" edge="1" parent="1" source="dUjcfKqK3O1uWmtBk4-m-21" target="dUjcfKqK3O1uWmtBk4-m-22">
          <mxGeometry relative="1" as="geometry" />
        </mxCell>
        <mxCell id="dUjcfKqK3O1uWmtBk4-m-21" value="" style="shape=actor;whiteSpace=wrap;html=1;" vertex="1" parent="1">
          <mxGeometry x="950" y="338" width="40" height="60" as="geometry" />
        </mxCell>
        <mxCell id="dUjcfKqK3O1uWmtBk4-m-29" style="edgeStyle=orthogonalEdgeStyle;rounded=0;orthogonalLoop=1;jettySize=auto;html=1;exitX=1;exitY=0.5;exitDx=0;exitDy=0;entryX=0;entryY=0.5;entryDx=0;entryDy=0;" edge="1" parent="1" source="dUjcfKqK3O1uWmtBk4-m-22" target="dUjcfKqK3O1uWmtBk4-m-23">
          <mxGeometry relative="1" as="geometry" />
        </mxCell>
        <mxCell id="dUjcfKqK3O1uWmtBk4-m-22" value="Create kanban board" style="rounded=1;whiteSpace=wrap;html=1;fillColor=#e1d5e7;strokeColor=#9673a6;" vertex="1" parent="1">
          <mxGeometry x="1080" y="338" width="120" height="60" as="geometry" />
        </mxCell>
        <mxCell id="dUjcfKqK3O1uWmtBk4-m-30" style="edgeStyle=orthogonalEdgeStyle;rounded=0;orthogonalLoop=1;jettySize=auto;html=1;exitX=1;exitY=0.5;exitDx=0;exitDy=0;entryX=0;entryY=0.5;entryDx=0;entryDy=0;" edge="1" parent="1" source="dUjcfKqK3O1uWmtBk4-m-23" target="dUjcfKqK3O1uWmtBk4-m-24">
          <mxGeometry relative="1" as="geometry" />
        </mxCell>
        <mxCell id="dUjcfKqK3O1uWmtBk4-m-23" value="Create a team" style="rounded=1;whiteSpace=wrap;html=1;fillColor=#e1d5e7;strokeColor=#9673a6;" vertex="1" parent="1">
          <mxGeometry x="1310" y="338" width="120" height="60" as="geometry" />
        </mxCell>
        <mxCell id="dUjcfKqK3O1uWmtBk4-m-31" style="edgeStyle=orthogonalEdgeStyle;rounded=0;orthogonalLoop=1;jettySize=auto;html=1;exitX=0.5;exitY=1;exitDx=0;exitDy=0;entryX=0.5;entryY=0;entryDx=0;entryDy=0;" edge="1" parent="1" source="dUjcfKqK3O1uWmtBk4-m-24" target="dUjcfKqK3O1uWmtBk4-m-25">
          <mxGeometry relative="1" as="geometry" />
        </mxCell>
        <mxCell id="dUjcfKqK3O1uWmtBk4-m-24" value="Create columns/states" style="rounded=1;whiteSpace=wrap;html=1;fillColor=#e1d5e7;strokeColor=#9673a6;" vertex="1" parent="1">
          <mxGeometry x="1530" y="338" width="120" height="60" as="geometry" />
        </mxCell>
        <mxCell id="dUjcfKqK3O1uWmtBk4-m-32" style="edgeStyle=orthogonalEdgeStyle;rounded=0;orthogonalLoop=1;jettySize=auto;html=1;exitX=0;exitY=0.5;exitDx=0;exitDy=0;entryX=1;entryY=0.5;entryDx=0;entryDy=0;" edge="1" parent="1" source="dUjcfKqK3O1uWmtBk4-m-25" target="dUjcfKqK3O1uWmtBk4-m-26">
          <mxGeometry relative="1" as="geometry" />
        </mxCell>
        <mxCell id="dUjcfKqK3O1uWmtBk4-m-25" value="Create cards" style="rounded=1;whiteSpace=wrap;html=1;fillColor=#e1d5e7;strokeColor=#9673a6;" vertex="1" parent="1">
          <mxGeometry x="1530" y="450" width="120" height="60" as="geometry" />
        </mxCell>
        <mxCell id="dUjcfKqK3O1uWmtBk4-m-26" value="Add comments and attachments" style="rounded=1;whiteSpace=wrap;html=1;fillColor=#e1d5e7;strokeColor=#9673a6;" vertex="1" parent="1">
          <mxGeometry x="1310" y="450" width="120" height="60" as="geometry" />
        </mxCell>
        <mxCell id="dUjcfKqK3O1uWmtBk4-m-33" value="&lt;font style=&quot;font-size: 16px;&quot;&gt;&lt;b&gt;User Workflow&lt;/b&gt;&lt;/font&gt;" style="rounded=0;whiteSpace=wrap;html=1;fillColor=none;" vertex="1" parent="1">
          <mxGeometry x="1230" y="230" width="230" height="30" as="geometry" />
        </mxCell>
        <mxCell id="dUjcfKqK3O1uWmtBk4-m-34" value="User needs to add email id&#39;s of existing teammates" style="text;html=1;align=center;verticalAlign=middle;resizable=0;points=[];autosize=1;strokeColor=none;fillColor=none;" vertex="1" parent="1">
          <mxGeometry x="1215" y="298" width="290" height="30" as="geometry" />
        </mxCell>
      </root>
    </mxGraphModel>
  </diagram>
</mxfile>
